<svg xmlns="http://www.w3.org/2000/svg" viewBox="0 0 800 500" fill="none">
  <rect width="800" height="500" fill="#0f0f0f"/>

  <!-- Left panel - blocks -->
  <rect x="0" y="0" width="180" height="500" fill="#1a1a1a"/>
  <text x="90" y="30" text-anchor="middle" fill="#888" font-family="system-ui" font-size="12" font-weight="600">BLOCKS</text>

  <!-- Block items -->
  <rect x="15" y="50" width="70" height="60" rx="6" fill="#2a2a2a"/>
  <rect x="95" y="50" width="70" height="60" rx="6" fill="#2a2a2a"/>
  <rect x="15" y="120" width="70" height="60" rx="6" fill="#CE422B" opacity="0.3"/>
  <rect x="95" y="120" width="70" height="60" rx="6" fill="#2a2a2a"/>
  <rect x="15" y="190" width="70" height="60" rx="6" fill="#2a2a2a"/>
  <rect x="95" y="190" width="70" height="60" rx="6" fill="#2a2a2a"/>

  <!-- Canvas area -->
  <rect x="200" y="20" width="580" height="460" fill="#151515" rx="8"/>

  <!-- Hero section being built -->
  <rect x="220" y="40" width="540" height="180" rx="6" fill="#1a1a1a" stroke="#CE422B" stroke-width="2" stroke-dasharray="4"/>
  <rect x="240" y="70" width="200" height="24" rx="2" fill="#3a3a3a"/>
  <rect x="240" y="110" width="400" height="14" rx="2" fill="#2a2a2a"/>
  <rect x="240" y="130" width="350" height="14" rx="2" fill="#2a2a2a"/>
  <rect x="240" y="170" width="100" height="30" rx="4" fill="#CE422B"/>
  <rect x="350" y="170" width="80" height="30" rx="4" fill="transparent" stroke="#3a3a3a" stroke-width="1"/>

  <!-- Drag indicator -->
  <circle cx="490" cy="120" r="20" fill="#CE422B" opacity="0.2"/>
  <path d="M480 120h20M490 110v20" stroke="#CE422B" stroke-width="2"/>

  <!-- Features section -->
  <rect x="220" y="240" width="540" height="120" rx="6" fill="#1a1a1a"/>
  <rect x="240" y="260" width="160" height="80" rx="4" fill="#2a2a2a"/>
  <rect x="410" y="260" width="160" height="80" rx="4" fill="#2a2a2a"/>
  <rect x="580" y="260" width="160" height="80" rx="4" fill="#2a2a2a"/>

  <!-- Footer hint -->
  <rect x="220" y="380" width="540" height="80" rx="6" fill="#1a1a1a" opacity="0.5"/>

  <text x="400" y="485" text-anchor="middle" fill="#666" font-family="system-ui" font-size="12">Visual Page Builder Preview</text>
</svg>