<svg xmlns="http://www.w3.org/2000/svg" viewBox="0 0 320 400" fill="none">
  <rect width="320" height="400" fill="#0a0a0a"/>

  <!-- Header -->
  <rect x="0" y="0" width="320" height="50" fill="#0f0f0f"/>
  <rect x="20" y="18" width="80" height="14" rx="2" fill="#CE422B"/>
  <rect x="200" y="18" width="40" height="14" rx="2" fill="#2a2a2a"/>
  <rect x="250" y="18" width="50" height="14" rx="2" fill="#2a2a2a"/>

  <!-- Hero -->
  <rect x="0" y="50" width="320" height="160" fill="linear-gradient(180deg, #1a1a1a, #0a0a0a)"/>
  <rect x="40" y="80" width="240" height="20" rx="2" fill="#fff" opacity="0.9"/>
  <rect x="60" y="110" width="200" height="12" rx="2" fill="#888"/>
  <rect x="80" y="130" width="160" height="12" rx="2" fill="#888"/>
  <rect x="110" y="160" width="100" height="30" rx="6" fill="#CE422B"/>

  <!-- Cards -->
  <rect x="20" y="230" width="85" height="70" rx="8" fill="#1a1a1a"/>
  <rect x="117" y="230" width="85" height="70" rx="8" fill="#1a1a1a"/>
  <rect x="214" y="230" width="85" height="70" rx="8" fill="#1a1a1a"/>

  <!-- Content -->
  <rect x="20" y="320" width="280" height="60" rx="8" fill="#1a1a1a"/>

  <text x="160" y="395" text-anchor="middle" fill="#CE422B" font-family="system-ui" font-size="10" font-weight="600">Enterprise Theme</text>
</svg>